<svg xmlns="http://www.w3.org/2000/svg" viewBox="0 0 100 100" fill="none" stroke="currentColor" stroke-width="1.4" stroke-linecap="round" stroke-linejoin="round" role="img" aria-label="Doric Column">
  <rect x="28" y="12" width="44" height="5"></rect>
  <path d="M 32 17 Q 32 22 36 22 L 64 22 Q 68 22 68 17"></path>
  <line x1="34" y1="24" x2="66" y2="24" stroke-opacity="0.5"></line>
  <line x1="36" y1="24" x2="34" y2="80"></line>
  <line x1="64" y1="24" x2="66" y2="80"></line>
  <line x1="42" y1="26" x2="41" y2="78" stroke-opacity="0.45"></line>
  <line x1="48" y1="26" x2="48" y2="78" stroke-opacity="0.45"></line>
  <line x1="54" y1="26" x2="54" y2="78" stroke-opacity="0.45"></line>
  <line x1="60" y1="26" x2="61" y2="78" stroke-opacity="0.45"></line>
  <path d="M 32 80 Q 32 86 36 86 L 64 86 Q 68 86 68 80"></path>
  <rect x="28" y="86" width="44" height="4"></rect>
  <line x1="14" y1="92" x2="86" y2="92" stroke-opacity="0.4"></line>
</svg>
