<svg xmlns="http://www.w3.org/2000/svg" viewBox="0 0 100 100" fill="none" stroke="currentColor" stroke-width="1.4" stroke-linecap="round" stroke-linejoin="round" role="img" aria-label="Cyclone / Aeolus">
  <path d="M 14 24 Q 50 18 86 24"></path>
  <path d="M 18 36 Q 50 30 82 36" stroke-opacity="0.85"></path>
  <path d="M 22 48 Q 50 42 78 48"></path>
  <path d="M 26 60 Q 50 54 74 60" stroke-opacity="0.85"></path>
  <path d="M 30 72 Q 50 66 70 72"></path>
  <path d="M 38 84 Q 50 80 62 84" stroke-opacity="0.7"></path>
  <path d="M 14 24 Q 6 28 8 36 Q 14 38 18 36"></path>
  <path d="M 86 24 Q 94 28 92 36 Q 86 38 82 36"></path>
  <circle cx="46" cy="48" r="1.5" fill="currentColor" stroke="none"></circle>
  <circle cx="56" cy="60" r="1.5" fill="currentColor" stroke="none"></circle>
</svg>