<svg xmlns="http://www.w3.org/2000/svg" viewBox="0 0 100 100" fill="none" stroke="currentColor" stroke-width="1.4" stroke-linecap="round" stroke-linejoin="round" role="img" aria-label="Fish / Dolphin">
  <path d="M 14 50 Q 30 30 56 32 Q 78 34 82 50 Q 78 66 56 68 Q 30 70 14 50 Z"></path>
  <path d="M 14 50 L 4 38 L 8 50 L 4 62 Z"></path>
  <circle cx="68" cy="44" r="2" fill="currentColor" stroke="none"></circle>
  <path d="M 60 50 Q 68 48 76 50" stroke-opacity="0.5"></path>
  <path d="M 40 36 L 38 26 L 50 32" stroke-opacity="0.7"></path>
  <path d="M 40 64 L 38 74 L 50 68" stroke-opacity="0.7"></path>
  <path d="M 30 50 Q 34 46 40 50" stroke-opacity="0.55"></path>
  <path d="M 20 50 Q 24 46 30 50" stroke-opacity="0.4"></path>
  <path d="M 6 28 Q 14 24 22 28" stroke-opacity="0.35"></path>
  <path d="M 6 72 Q 14 76 22 72" stroke-opacity="0.35"></path>
</svg>