<svg xmlns="http://www.w3.org/2000/svg" viewBox="0 0 100 100" fill="none" stroke="currentColor" stroke-width="1.4" stroke-linecap="round" stroke-linejoin="round" role="img" aria-label="Goddess Figure">
  <circle cx="50" cy="24" r="8"></circle>
  <path d="M 42 22 Q 38 14 42 8 Q 50 12 50 20" stroke-opacity="0.7"></path>
  <path d="M 58 22 Q 62 14 58 8 Q 50 12 50 20" stroke-opacity="0.7"></path>
  <path d="M 40 30 L 30 50 L 24 84 L 76 84 L 70 50 L 60 30 Z"></path>
  <path d="M 42 36 L 32 80" stroke-opacity="0.5"></path>
  <path d="M 50 32 L 50 84" stroke-opacity="0.5"></path>
  <path d="M 58 36 L 68 80" stroke-opacity="0.5"></path>
  <path d="M 36 46 L 26 60" stroke-opacity="0.55"></path>
  <path d="M 64 46 L 74 60" stroke-opacity="0.55"></path>
  <path d="M 38 48 Q 32 56 30 64" stroke-opacity="0.45"></path>
  <path d="M 62 48 Q 68 56 70 64" stroke-opacity="0.45"></path>
  <line x1="46" y1="22" x2="48" y2="22" stroke-opacity="0.7"></line>
  <line x1="52" y1="22" x2="54" y2="22" stroke-opacity="0.7"></line>
  <path d="M 46 26 Q 50 28 54 26" stroke-opacity="0.55"></path>
</svg>