<svg xmlns="http://www.w3.org/2000/svg" viewBox="0 0 100 100" fill="none" stroke="currentColor" stroke-width="1.4" stroke-linecap="round" stroke-linejoin="round" role="img" aria-label="Jester Cap">
  <path d="M 30 60 Q 28 44 36 38 Q 32 30 26 28 M 50 56 Q 50 38 50 32 Q 56 28 56 24 M 70 60 Q 72 44 64 38 Q 68 30 74 28"></path>
  <path d="M 30 60 Q 50 66 70 60 L 72 66 Q 50 74 28 66 Z"></path>
  <circle cx="26" cy="28" r="3" fill="currentColor" stroke="none"></circle><circle cx="56" cy="24" r="3" fill="currentColor" stroke="none"></circle><circle cx="74" cy="28" r="3" fill="currentColor" stroke="none"></circle>
  <path d="M 36 66 L 36 72 M 50 68 L 50 74 M 64 66 L 64 72" opacity="0.5"></path>
</svg>