<svg xmlns="http://www.w3.org/2000/svg" viewBox="0 0 100 100" fill="none" stroke="currentColor" stroke-width="1.4" stroke-linecap="round" stroke-linejoin="round" role="img" aria-label="Spring Lamb">
  <path d="M 36 50 Q 30 44 36 40 Q 42 38 44 44 Q 50 38 56 44 Q 62 38 66 44 Q 72 42 70 50 Q 76 54 70 60 Q 72 68 64 68 Q 60 74 54 70 Q 48 74 44 68 Q 36 70 36 62 Q 30 58 36 50 Z"></path>
  <path d="M 50 56 Q 44 56 44 64 Q 44 72 52 72 Q 58 72 58 64"></path>
  <circle cx="50" cy="62" r="1.2" fill="currentColor" stroke="none"></circle>
  <path d="M 44 62 Q 38 60 38 66 M 58 62 Q 64 60 64 66" opacity="0.6"></path>
  <line x1="46" y1="72" x2="46" y2="80"></line><line x1="56" y1="72" x2="56" y2="80"></line>
</svg>