<svg xmlns="http://www.w3.org/2000/svg" viewBox="0 0 100 100" fill="none" stroke="currentColor" stroke-width="1.4" stroke-linecap="round" stroke-linejoin="round" role="img" aria-label="Victor&#39;s Laurel">
  <path d="M 50 80 Q 30 72 28 48 Q 28 32 38 26"></path>
  <path d="M 50 80 Q 70 72 72 48 Q 72 32 62 26"></path>
  <path d="M 34 40 Q 28 38 26 44 Q 32 46 36 42 M 32 52 Q 26 52 26 58 Q 32 58 36 54 M 38 64 Q 32 66 34 72 Q 40 70 42 64" opacity="0.85"></path>
  <path d="M 66 40 Q 72 38 74 44 Q 68 46 64 42 M 68 52 Q 74 52 74 58 Q 68 58 64 54 M 62 64 Q 68 66 66 72 Q 60 70 58 64" opacity="0.85"></path>
  <path d="M 44 26 Q 50 22 56 26 L 50 30 Z" stroke="currentColor"></path>
</svg>