<svg xmlns="http://www.w3.org/2000/svg" viewBox="0 0 100 100" fill="none" stroke="currentColor" stroke-width="1.4" stroke-linecap="round" stroke-linejoin="round" role="img" aria-label="Lyre">
  <path d="M 26 70 Q 18 60 22 40 Q 26 22 36 18"></path>
  <path d="M 74 70 Q 82 60 78 40 Q 74 22 64 18"></path>
  <path d="M 32 22 Q 36 16 40 22"></path>
  <path d="M 68 22 Q 64 16 60 22"></path>
  <path d="M 30 30 Q 50 26 70 30"></path>
  <line x1="40" y1="30" x2="40" y2="72" stroke-opacity="0.7"></line>
  <line x1="46" y1="30" x2="46" y2="74" stroke-opacity="0.7"></line>
  <line x1="54" y1="30" x2="54" y2="74" stroke-opacity="0.7"></line>
  <line x1="60" y1="30" x2="60" y2="72" stroke-opacity="0.7"></line>
  <path d="M 32 70 Q 50 80 68 70"></path>
  <path d="M 28 70 L 72 70" stroke-opacity="0.5"></path>
  <line x1="50" y1="80" x2="50" y2="86" stroke-opacity="0.5"></line>
  <ellipse cx="50" cy="88" rx="6" ry="1.5" stroke-opacity="0.4"></ellipse>
</svg>