<svg xmlns="http://www.w3.org/2000/svg" viewBox="0 0 100 100" fill="none" stroke="currentColor" stroke-width="1.4" stroke-linecap="round" stroke-linejoin="round" role="img" aria-label="Map">
  <path d="M 12 22 L 36 16 L 64 22 L 88 16 L 88 78 L 64 84 L 36 78 L 12 84 Z"></path>
  <line x1="36" y1="16" x2="36" y2="78" stroke-opacity="0.55"></line>
  <line x1="64" y1="22" x2="64" y2="84" stroke-opacity="0.55"></line>
  <path d="M 18 50 Q 30 46 42 52 Q 56 46 70 52 Q 80 50 84 54" stroke-opacity="0.5" stroke-dasharray="2 3"></path>
  <circle cx="24" cy="40" r="2.5" fill="currentColor"></circle>
  <circle cx="50" cy="48" r="2.5" fill="currentColor"></circle>
  <circle cx="78" cy="62" r="2.5" fill="currentColor"></circle>
  <path d="M 50 48 L 46 38 L 54 38 Z" stroke-opacity="0.7"></path>
  <path d="M 70 28 L 76 28 M 73 25 L 73 31 M 70.5 25.5 L 75.5 30.5 M 75.5 25.5 L 70.5 30.5" stroke-opacity="0.7"></path>
</svg>