<svg xmlns="http://www.w3.org/2000/svg" viewBox="0 0 100 100" fill="none" stroke="currentColor" stroke-width="1.4" stroke-linecap="round" stroke-linejoin="round" role="img" aria-label="Theatre Masks">
  <path d="M 14 36 Q 14 20 30 20 Q 46 20 46 36 L 46 56 Q 46 72 30 72 Q 14 72 14 56 Z"></path>
  <path d="M 22 38 Q 24 34 28 38"></path>
  <path d="M 32 38 Q 36 34 38 38"></path>
  <path d="M 22 60 Q 30 54 38 60"></path>
  <path d="M 18 28 L 22 22" stroke-opacity="0.5"></path>
  <path d="M 24 24 L 26 18" stroke-opacity="0.5"></path>
  <path d="M 30 22 L 30 18" stroke-opacity="0.5"></path>
  <path d="M 36 24 L 38 18" stroke-opacity="0.5"></path>
  <path d="M 42 28 L 44 22" stroke-opacity="0.5"></path>
  <path d="M 54 36 Q 54 20 70 20 Q 86 20 86 36 L 86 56 Q 86 72 70 72 Q 54 72 54 56 Z"></path>
  <path d="M 60 36 Q 64 40 68 36"></path>
  <path d="M 72 36 Q 76 40 80 36"></path>
  <path d="M 62 56 Q 70 66 78 56"></path>
  <path d="M 64 58 L 76 58" stroke-opacity="0.45"></path>
  <path d="M 58 28 L 62 22" stroke-opacity="0.5"></path>
  <path d="M 64 24 L 66 18" stroke-opacity="0.5"></path>
  <path d="M 70 22 L 70 18" stroke-opacity="0.5"></path>
  <path d="M 76 24 L 78 18" stroke-opacity="0.5"></path>
  <path d="M 82 28 L 84 22" stroke-opacity="0.5"></path>
</svg>
