<svg xmlns="http://www.w3.org/2000/svg" viewBox="0 0 100 100" fill="none" stroke="currentColor" stroke-width="1.4" stroke-linecap="round" stroke-linejoin="round" role="img" aria-label="Masquerade Mask">
  <path d="M 22 46 Q 22 40 28 40 Q 40 40 48 46 Q 50 48 52 46 Q 60 40 72 40 Q 78 40 78 46 Q 78 60 66 64 Q 56 66 50 56 Q 44 66 34 64 Q 22 60 22 46 Z"></path>
  <path d="M 30 48 Q 36 46 42 50 Q 38 56 32 54 Q 28 52 30 48 Z"></path>
  <path d="M 70 48 Q 64 46 58 50 Q 62 56 68 54 Q 72 52 70 48 Z"></path>
  <path d="M 50 40 L 50 32 M 44 36 L 42 28 M 56 36 L 58 28" opacity="0.7"></path>
  <circle cx="50" cy="30" r="2" fill="currentColor" stroke="none"></circle>
</svg>