<svg xmlns="http://www.w3.org/2000/svg" viewBox="0 0 100 100" fill="none" stroke="currentColor" stroke-width="1.4" stroke-linecap="round" stroke-linejoin="round" role="img" aria-label="Comedy &amp; Tragedy">
  <path d="M 24 38 Q 24 30 34 30 Q 46 30 46 40 L 46 54 Q 46 64 36 66 Q 26 64 24 54 Z"></path>
  <circle cx="32" cy="44" r="2" fill="currentColor" stroke="none"></circle><circle cx="40" cy="44" r="2" fill="currentColor" stroke="none"></circle>
  <path d="M 30 56 Q 36 52 42 56"></path>
  <path d="M 54 46 Q 54 36 64 36 Q 76 36 76 44 L 76 60 Q 76 70 66 72 Q 56 70 54 60 Z"></path>
  <circle cx="62" cy="50" r="2" fill="currentColor" stroke="none"></circle><circle cx="70" cy="50" r="2" fill="currentColor" stroke="none"></circle>
  <path d="M 60 64 Q 66 68 72 64"></path>
</svg>