<svg xmlns="http://www.w3.org/2000/svg" viewBox="0 0 100 100" fill="none" stroke="currentColor" stroke-width="1.4" stroke-linecap="round" stroke-linejoin="round" role="img" aria-label="Olive Tree">
  <path d="M 50 86 L 50 50"></path>
  <path d="M 50 64 Q 42 60 38 54" stroke-opacity="0.7"></path>
  <path d="M 50 60 Q 58 56 64 50" stroke-opacity="0.7"></path>
  <path d="M 50 70 Q 56 68 60 64" stroke-opacity="0.6"></path>
  <path d="M 50 50 Q 32 48 24 36 Q 22 24 36 22 Q 38 14 50 16 Q 62 14 64 22 Q 78 24 76 36 Q 68 48 50 50 Z"></path>
  <ellipse cx="34" cy="34" rx="4" ry="2" transform="rotate(-25 34 34)" stroke-opacity="0.6"></ellipse>
  <ellipse cx="46" cy="28" rx="4" ry="2" transform="rotate(15 46 28)" stroke-opacity="0.6"></ellipse>
  <ellipse cx="58" cy="34" rx="4" ry="2" transform="rotate(35 58 34)" stroke-opacity="0.6"></ellipse>
  <ellipse cx="42" cy="40" rx="4" ry="2" transform="rotate(-10 42 40)" stroke-opacity="0.6"></ellipse>
  <ellipse cx="58" cy="42" rx="4" ry="2" transform="rotate(20 58 42)" stroke-opacity="0.6"></ellipse>
  <circle cx="40" cy="44" r="1.4" fill="currentColor" stroke="none"></circle>
  <circle cx="56" cy="36" r="1.4" fill="currentColor" stroke="none"></circle>
  <circle cx="48" cy="34" r="1.4" fill="currentColor" stroke="none"></circle>
  <path d="M 36 86 L 64 86" stroke-width="1.8"></path>
  <path d="M 32 90 L 68 90" stroke-opacity="0.5"></path>
</svg>