<svg xmlns="http://www.w3.org/2000/svg" viewBox="0 0 100 100" fill="none" stroke="currentColor" stroke-width="1.4" stroke-linecap="round" stroke-linejoin="round" role="img" aria-label="Olive Branch">
  <path d="M 14 78 Q 36 60 58 46 Q 78 32 88 18"></path>
  <ellipse cx="22" cy="68" rx="6" ry="3" transform="rotate(-30 22 68)"></ellipse>
  <ellipse cx="34" cy="58" rx="7" ry="3.5" transform="rotate(-32 34 58)"></ellipse>
  <ellipse cx="48" cy="48" rx="6" ry="3" transform="rotate(-35 48 48)"></ellipse>
  <ellipse cx="62" cy="38" rx="7" ry="3.5" transform="rotate(-38 62 38)"></ellipse>
  <ellipse cx="76" cy="26" rx="6" ry="3" transform="rotate(-42 76 26)"></ellipse>
  <ellipse cx="30" cy="76" rx="5" ry="2.5" transform="rotate(20 30 76)" stroke-opacity="0.55"></ellipse>
  <ellipse cx="42" cy="66" rx="5" ry="2.5" transform="rotate(18 42 66)" stroke-opacity="0.55"></ellipse>
  <ellipse cx="56" cy="56" rx="5" ry="2.5" transform="rotate(16 56 56)" stroke-opacity="0.55"></ellipse>
  <ellipse cx="70" cy="44" rx="5" ry="2.5" transform="rotate(14 70 44)" stroke-opacity="0.55"></ellipse>
</svg>