<svg xmlns="http://www.w3.org/2000/svg" viewBox="0 0 100 100" fill="none" stroke="currentColor" stroke-width="1.4" stroke-linecap="round" stroke-linejoin="round" role="img" aria-label="Feather / Poetry">
  <path d="M 18 86 L 76 28"></path>
  <path d="M 76 28 Q 86 18 90 8 Q 86 14 80 18"></path>
  <path d="M 76 28 Q 82 26 86 22"></path>
  <path d="M 26 78 L 30 70 L 38 66"></path>
  <path d="M 28 76 L 36 76 L 42 70" stroke-opacity="0.7"></path>
  <path d="M 32 72 L 44 72 L 50 64"></path>
  <path d="M 34 70 L 46 70 L 52 64" stroke-opacity="0.7"></path>
  <path d="M 38 66 L 52 66 L 58 58"></path>
  <path d="M 42 62 L 56 62 L 62 54" stroke-opacity="0.7"></path>
  <path d="M 46 58 L 60 58 L 66 50"></path>
  <path d="M 50 54 L 62 54 L 68 46" stroke-opacity="0.7"></path>
  <path d="M 54 50 L 66 50 L 72 42"></path>
  <path d="M 58 46 L 68 46 L 74 38" stroke-opacity="0.7"></path>
  <path d="M 62 42 L 72 42 L 76 36"></path>
  <path d="M 14 90 L 22 82" stroke-width="2"></path>
</svg>