<svg xmlns="http://www.w3.org/2000/svg" viewBox="0 0 100 100" fill="none" stroke="currentColor" stroke-width="1.4" stroke-linecap="round" stroke-linejoin="round" role="img" aria-label="Tug of War">
  <path d="M 8 50 Q 16 44 24 50 T 40 50 T 56 50 T 72 50 T 88 50 T 96 50"></path>
  <path d="M 8 50 Q 16 56 24 50 T 40 50 T 56 50 T 72 50 T 88 50 T 96 50" stroke-opacity="0.55"></path>
  <line x1="50" y1="36" x2="50" y2="64" stroke-width="2"></line>
  <circle cx="50" cy="34" r="2" fill="currentColor" stroke="none"></circle>
  <path d="M 14 56 L 10 64 L 18 64 Z" stroke-opacity="0.7"></path>
  <path d="M 22 56 L 18 64 L 26 64 Z" stroke-opacity="0.7"></path>
  <path d="M 78 56 L 74 64 L 82 64 Z" stroke-opacity="0.7"></path>
  <path d="M 86 56 L 82 64 L 90 64 Z" stroke-opacity="0.7"></path>
  <line x1="18" y1="64" x2="22" y2="64" stroke-opacity="0.5"></line>
  <line x1="78" y1="64" x2="82" y2="64" stroke-opacity="0.5"></line>
  <path d="M 30 42 L 26 36 M 34 42 L 30 36" stroke-opacity="0.5"></path>
  <path d="M 66 42 L 70 36 M 70 42 L 74 36" stroke-opacity="0.5"></path>
</svg>