<svg xmlns="http://www.w3.org/2000/svg" viewBox="0 0 100 100" fill="none" stroke="currentColor" stroke-width="1.4" stroke-linecap="round" stroke-linejoin="round" role="img" aria-label="Lion Shield">
  <path d="M 22 18 L 78 18 L 78 50 Q 78 78 50 88 Q 22 78 22 50 Z"></path>
  <path d="M 28 24 L 72 24 L 72 50 Q 72 72 50 82 Q 28 72 28 50 Z" stroke-opacity="0.45"></path>
  <circle cx="50" cy="48" r="10"></circle>
  <path d="M 40 44 Q 36 40 38 36 M 60 44 Q 64 40 62 36" stroke-opacity="0.85"></path>
  <path d="M 40 52 Q 36 56 38 60 M 60 52 Q 64 56 62 60" stroke-opacity="0.85"></path>
  <path d="M 50 38 Q 46 36 44 38 M 50 38 Q 54 36 56 38" stroke-opacity="0.85"></path>
  <path d="M 50 58 Q 46 60 44 58 M 50 58 Q 54 60 56 58" stroke-opacity="0.85"></path>
  <circle cx="46" cy="46" r="1" fill="currentColor" stroke="none"></circle>
  <circle cx="54" cy="46" r="1" fill="currentColor" stroke="none"></circle>
  <path d="M 47 52 Q 50 54 53 52" stroke-opacity="0.7"></path>
  <line x1="50" y1="18" x2="50" y2="14" stroke-opacity="0.55"></line>
  <path d="M 30 30 L 30 18 M 70 30 L 70 18" stroke-opacity="0.45"></path>
</svg>