<svg xmlns="http://www.w3.org/2000/svg" viewBox="0 0 100 100" fill="none" stroke="currentColor" stroke-width="1.4" stroke-linecap="round" stroke-linejoin="round" role="img" aria-label="Corinthian Helmet">
  
  <path d="M 22 24 Q 28 8 38 22 Q 44 8 54 22 Q 60 8 70 22 Q 76 8 82 24"></path>
  <path d="M 22 24 Q 50 30 82 24"></path>
  
  <path d="M 26 28 Q 24 56 32 70 L 70 70 Q 78 56 76 28"></path>
  
  <path d="M 38 44 L 38 58 Q 38 64 44 64 L 50 64 L 50 76 L 54 76 L 54 64 L 60 64 Q 62 64 62 58 L 62 44 Z"></path>
  <line x1="50" y1="44" x2="50" y2="62" stroke-opacity="0.4"></line>
  <path d="M 26 28 Q 50 32 76 28" stroke-opacity="0.5"></path>
  <path d="M 32 70 Q 34 80 40 82 L 60 82 Q 66 80 68 70" stroke-opacity="0.5"></path>
</svg>