<svg xmlns="http://www.w3.org/2000/svg" viewBox="0 0 100 100" fill="none" stroke="currentColor" stroke-width="1.4" stroke-linecap="round" stroke-linejoin="round" role="img" aria-label="Dialogue / Translate">
  <path d="M 14 24 L 64 24 Q 70 24 70 30 L 70 56 Q 70 62 64 62 L 34 62 L 22 74 L 22 62 L 14 62 Q 8 62 8 56 L 8 30 Q 8 24 14 24 Z"></path>
  <line x1="18" y1="36" x2="58" y2="36" stroke-opacity="0.55"></line>
  <line x1="18" y1="44" x2="50" y2="44" stroke-opacity="0.55"></line>
  <line x1="18" y1="52" x2="56" y2="52" stroke-opacity="0.55"></line>
  <path d="M 76 44 L 90 44 Q 94 44 94 48 L 94 64 Q 94 68 90 68 L 86 68 L 86 76 L 80 68 L 76 68 Q 72 68 72 64 L 72 56" stroke-opacity="0.7"></path>
  <circle cx="80" cy="56" r="1.4" fill="currentColor" stroke="none"></circle>
  <circle cx="86" cy="56" r="1.4" fill="currentColor" stroke="none"></circle>
</svg>