<svg xmlns="http://www.w3.org/2000/svg" viewBox="0 0 100 100" fill="none" stroke="currentColor" stroke-width="1.4" stroke-linecap="round" stroke-linejoin="round" role="img" aria-label="Sun / Apollo">
  <circle cx="50" cy="50" r="18"></circle>
  <circle cx="50" cy="50" r="12" stroke-opacity="0.45"></circle>
  <line x1="50" y1="22" x2="50" y2="10"></line>
  <line x1="50" y1="78" x2="50" y2="90"></line>
  <line x1="22" y1="50" x2="10" y2="50"></line>
  <line x1="78" y1="50" x2="90" y2="50"></line>
  <line x1="30" y1="30" x2="22" y2="22"></line>
  <line x1="70" y1="30" x2="78" y2="22"></line>
  <line x1="30" y1="70" x2="22" y2="78"></line>
  <line x1="70" y1="70" x2="78" y2="78"></line>
  <line x1="50" y1="16" x2="50" y2="20" stroke-opacity="0.55"></line>
  <line x1="64" y1="20" x2="62" y2="24" stroke-opacity="0.55"></line>
  <line x1="36" y1="20" x2="38" y2="24" stroke-opacity="0.55"></line>
  <path d="M 42 50 Q 50 42 58 50" stroke-opacity="0.55"></path>
  <path d="M 42 50 Q 50 58 58 50" stroke-opacity="0.55"></path>
</svg>