<svg xmlns="http://www.w3.org/2000/svg" viewBox="0 0 100 100" fill="none" stroke="currentColor" stroke-width="1.4" stroke-linecap="round" stroke-linejoin="round" role="img" aria-label="Wax Tablet">
  <rect x="14" y="18" width="72" height="64" rx="3"></rect>
  <rect x="20" y="24" width="60" height="52" rx="1" stroke-opacity="0.55"></rect>
  <line x1="50" y1="18" x2="50" y2="82" stroke-opacity="0.45"></line>
  <path d="M 26 34 L 44 34" stroke-opacity="0.55"></path>
  <path d="M 26 40 L 44 40" stroke-opacity="0.55"></path>
  <path d="M 26 46 L 40 46" stroke-opacity="0.55"></path>
  <path d="M 26 54 L 44 54" stroke-opacity="0.55"></path>
  <path d="M 26 60 L 42 60" stroke-opacity="0.55"></path>
  <path d="M 56 34 L 74 34" stroke-opacity="0.55"></path>
  <path d="M 56 40 L 74 40" stroke-opacity="0.55"></path>
  <path d="M 56 46 L 70 46" stroke-opacity="0.55"></path>
  <path d="M 56 56 L 76 64 L 70 70" stroke-opacity="0.8"></path>
  <circle cx="76" cy="64" r="1.5" fill="currentColor" stroke="none"></circle>
  <line x1="14" y1="50" x2="11" y2="50"></line>
  <line x1="86" y1="50" x2="89" y2="50"></line>
</svg>