<svg xmlns="http://www.w3.org/2000/svg" viewBox="0 0 100 100" fill="none" stroke="currentColor" stroke-width="1.4" stroke-linecap="round" stroke-linejoin="round" role="img" aria-label="Timeline">
  <line x1="10" y1="50" x2="90" y2="50"></line>
  <path d="M 90 50 L 84 46 M 90 50 L 84 54"></path>
  <circle cx="22" cy="50" r="4" fill="currentColor" stroke="none"></circle>
  <circle cx="40" cy="50" r="3.5"></circle>
  <circle cx="58" cy="50" r="3.5"></circle>
  <circle cx="76" cy="50" r="3.5"></circle>
  <line x1="22" y1="46" x2="22" y2="32"></line>
  <line x1="40" y1="54" x2="40" y2="68"></line>
  <line x1="58" y1="46" x2="58" y2="32"></line>
  <line x1="76" y1="54" x2="76" y2="68"></line>
  <rect x="14" y="22" width="16" height="10"></rect>
  <rect x="32" y="68" width="16" height="10"></rect>
  <rect x="50" y="22" width="16" height="10"></rect>
  <rect x="68" y="68" width="16" height="10"></rect>
  <line x1="18" y1="27" x2="26" y2="27" stroke-opacity="0.5"></line>
  <line x1="36" y1="73" x2="44" y2="73" stroke-opacity="0.5"></line>
  <line x1="54" y1="27" x2="62" y2="27" stroke-opacity="0.5"></line>
  <line x1="72" y1="73" x2="80" y2="73" stroke-opacity="0.5"></line>
</svg>