<svg xmlns="http://www.w3.org/2000/svg" viewBox="0 0 100 100" fill="none" stroke="currentColor" stroke-width="1.4" stroke-linecap="round" stroke-linejoin="round" role="img" aria-label="Walls of Troy">
  <line x1="6" y1="86" x2="94" y2="86" stroke-opacity="0.5"></line>
  <path d="M 38 86 L 38 28 L 42 28 L 42 22 L 46 22 L 46 28 L 50 28 L 50 22 L 54 22 L 54 28 L 58 28 L 58 22 L 62 22 L 62 28 L 62 86"></path>
  <path d="M 44 86 L 44 70 Q 44 64 50 64 Q 56 64 56 70 L 56 86"></path>
  <path d="M 6 86 L 6 48 L 10 48 L 10 42 L 14 42 L 14 48 L 18 48 L 18 42 L 22 42 L 22 48 L 26 48 L 26 42 L 30 42 L 30 48 L 38 48"></path>
  <path d="M 62 48 L 70 48 L 70 42 L 74 42 L 74 48 L 78 48 L 78 42 L 82 42 L 82 48 L 86 48 L 86 42 L 90 42 L 90 48 L 94 48 L 94 86"></path>
  <line x1="6" y1="60" x2="38" y2="60" stroke-opacity="0.35"></line>
  <line x1="62" y1="60" x2="94" y2="60" stroke-opacity="0.35"></line>
  <line x1="6" y1="72" x2="38" y2="72" stroke-opacity="0.35"></line>
  <line x1="62" y1="72" x2="94" y2="72" stroke-opacity="0.35"></line>
  <line x1="50" y1="38" x2="50" y2="46" stroke-opacity="0.6"></line>
  <line x1="50" y1="52" x2="50" y2="60" stroke-opacity="0.6"></line>
</svg>
