<svg xmlns="http://www.w3.org/2000/svg" viewBox="0 0 180 200" fill="none" stroke="currentColor" stroke-width="1.6" stroke-linecap="round" stroke-linejoin="round" role="img" aria-label="Minotaur">
  
  <path d="M 64 50 Q 50 36 40 40 Q 44 28 58 34"></path>
  <path d="M 116 50 Q 130 36 140 40 Q 136 28 122 34"></path>
  <path d="M 66 56 Q 60 40 72 34 Q 90 28 108 34 Q 120 40 114 56 Q 120 66 110 74 Q 100 82 90 82 Q 80 82 70 74 Q 60 66 66 56 Z"></path>
  <circle cx="78" cy="56" r="2" fill="#E08456" stroke="none"></circle>
  <circle cx="102" cy="56" r="2" fill="#E08456" stroke="none"></circle>
  <path d="M 84 68 Q 90 72 96 68" opacity="0.7"></path>
  <ellipse cx="90" cy="74" rx="3" ry="2" opacity="0.6"></ellipse>
  <line x1="80" y1="64" x2="82" y2="62" opacity="0.6"></line><line x1="100" y1="64" x2="98" y2="62" opacity="0.6"></line>
  
  <path d="M 78 82 Q 76 92 70 98 L 58 108 Q 44 118 44 140 L 50 176"></path>
  <path d="M 102 82 Q 104 92 110 98 L 122 108 Q 136 118 136 140 L 130 176"></path>
  
  <path d="M 70 100 Q 90 108 110 100" opacity="0.6"></path>
  <path d="M 78 116 Q 90 122 102 116" opacity="0.5"></path>
  <line x1="90" y1="100" x2="90" y2="150" opacity="0.4"></line>
  
  <path d="M 58 108 Q 38 116 34 138" opacity="0.85"></path>
  <path d="M 122 108 Q 142 116 146 138" opacity="0.85"></path>
  
  <line x1="62" y1="176" x2="74" y2="176" opacity="0.7"></line>
  <line x1="106" y1="176" x2="118" y2="176" opacity="0.7"></line>
  
  <line x1="146" y1="60" x2="150" y2="138" stroke-width="1.4"></line>
  <path d="M 132 60 Q 150 50 164 62 Q 152 70 146 66 Z" stroke="#E08456" opacity="0.85"></path>
</svg>