<svg xmlns="http://www.w3.org/2000/svg" viewBox="0 0 100 100" fill="none" stroke="currentColor" stroke-width="1.4" stroke-linecap="round" stroke-linejoin="round" role="img" aria-label="Chariot">
  
  <path d="M 8 54 Q 10 48 18 48 L 26 48 Q 30 42 34 46 L 34 54 L 24 54 L 22 60 L 20 54 L 14 54 L 12 60 L 10 54 Z"></path>
  <line x1="34" y1="48" x2="38" y2="42" stroke-opacity="0.5"></line>
  
  <path d="M 26 58 Q 28 52 36 52 L 44 52 Q 48 46 52 50 L 52 58 L 42 58 L 40 64 L 38 58 L 32 58 L 30 64 L 28 58 Z" stroke-opacity="0.85"></path>
  
  <line x1="52" y1="54" x2="68" y2="62"></line>
  <line x1="34" y1="50" x2="60" y2="62" stroke-opacity="0.5"></line>
  
  <path d="M 64 56 L 90 56 L 90 70 L 64 70 Z"></path>
  <path d="M 64 56 Q 64 50 70 50 L 84 50 Q 90 50 90 56"></path>
  
  <circle cx="78" cy="74" r="10"></circle>
  <line x1="68" y1="74" x2="88" y2="74"></line>
  <line x1="78" y1="64" x2="78" y2="84"></line>
  <line x1="71" y1="67" x2="85" y2="81"></line>
  <line x1="85" y1="67" x2="71" y2="81"></line>
  <circle cx="78" cy="74" r="1.2" fill="currentColor"></circle>
  <line x1="4" y1="86" x2="96" y2="86" stroke-opacity="0.4"></line>
</svg>