<svg xmlns="http://www.w3.org/2000/svg" viewBox="0 0 100 100" fill="none" stroke="currentColor" stroke-width="1.4" stroke-linecap="round" stroke-linejoin="round" role="img" aria-label="Hourglass">
  <line x1="22" y1="14" x2="78" y2="14" stroke-width="2"></line>
  <line x1="22" y1="86" x2="78" y2="86" stroke-width="2"></line>
  <path d="M 26 14 L 26 26 Q 26 32 32 38 L 46 50 L 32 62 Q 26 68 26 74 L 26 86"></path>
  <path d="M 74 14 L 74 26 Q 74 32 68 38 L 54 50 L 68 62 Q 74 68 74 74 L 74 86"></path>
  <path d="M 30 22 Q 50 30 70 22" stroke-opacity="0.55"></path>
  <path d="M 32 30 Q 50 36 68 30" stroke-opacity="0.55"></path>
  <path d="M 40 38 Q 50 42 60 38" stroke-opacity="0.55"></path>
  <line x1="50" y1="50" x2="50" y2="60" stroke-opacity="0.7" stroke-dasharray="1 2"></line>
  <path d="M 38 78 Q 50 72 62 78" stroke-opacity="0.55"></path>
  <path d="M 34 84 Q 50 78 66 84" stroke-opacity="0.55"></path>
</svg>