<svg xmlns="http://www.w3.org/2000/svg" viewBox="0 0 100 100" fill="none" stroke="currentColor" stroke-width="1.4" stroke-linecap="round" stroke-linejoin="round" role="img" aria-label="Pegasus / Horse">
  <path d="M 18 60 Q 16 50 22 46 L 36 44 L 52 48 L 68 44 L 74 38 L 80 36 L 82 30 L 88 32 L 82 38 L 84 44 L 78 46 L 72 54 L 66 60 L 62 76 L 56 76 L 58 64 L 42 64 L 40 76 L 34 76 L 36 64 L 26 64 Z"></path>
  <circle cx="80" cy="34" r="0.8" fill="currentColor" stroke="none"></circle>
  <path d="M 84 40 Q 90 42 92 38" stroke-opacity="0.55"></path>
  <path d="M 78 38 L 74 30" stroke-opacity="0.55"></path>
  <path d="M 36 48 Q 24 46 18 52" stroke-opacity="0.55"></path>
  <path d="M 22 42 Q 14 38 16 32 Q 22 30 24 36" stroke-opacity="0.7"></path>
  <line x1="80" y1="32" x2="80" y2="28" stroke-opacity="0.6"></line>
  <line x1="76" y1="32" x2="76" y2="28" stroke-opacity="0.6"></line>
</svg>