<svg xmlns="http://www.w3.org/2000/svg" viewBox="0 0 100 100" fill="none" stroke="currentColor" stroke-width="1.4" stroke-linecap="round" stroke-linejoin="round" role="img" aria-label="Papyrus Scroll">
  <ellipse cx="20" cy="50" rx="8" ry="22"></ellipse>
  <ellipse cx="20" cy="50" rx="3" ry="22"></ellipse>
  <ellipse cx="80" cy="50" rx="8" ry="22"></ellipse>
  <ellipse cx="80" cy="50" rx="3" ry="22"></ellipse>
  <path d="M 20 28 L 80 28"></path>
  <path d="M 20 72 L 80 72"></path>
  <path d="M 28 38 Q 32 36 36 38 T 44 38 T 52 38 T 60 38 T 68 38 T 76 38" stroke-opacity="0.65"></path>
  <path d="M 28 46 Q 32 44 36 46 T 44 46 T 52 46 T 60 46 T 68 46 T 76 46" stroke-opacity="0.65"></path>
  <path d="M 28 54 Q 32 52 36 54 T 44 54 T 52 54 T 60 54 T 68 54 T 72 54" stroke-opacity="0.65"></path>
  <path d="M 28 62 Q 32 60 36 62 T 44 62 T 52 62 T 60 62" stroke-opacity="0.65"></path>
  <line x1="20" y1="26" x2="20" y2="22" stroke-width="2"></line>
  <line x1="20" y1="74" x2="20" y2="78" stroke-width="2"></line>
  <line x1="80" y1="26" x2="80" y2="22" stroke-width="2"></line>
  <line x1="80" y1="74" x2="80" y2="78" stroke-width="2"></line>
</svg>
