<svg xmlns="http://www.w3.org/2000/svg" viewBox="0 0 100 100" fill="none" stroke="currentColor" stroke-width="1.4" stroke-linecap="round" stroke-linejoin="round" role="img" aria-label="Owl">
  <path d="M 28 30 Q 26 18 36 16 L 42 22"></path>
  <path d="M 72 30 Q 74 18 64 16 L 58 22"></path>
  <path d="M 22 44 Q 22 22 50 22 Q 78 22 78 44 L 78 64 Q 78 84 50 84 Q 22 84 22 64 Z"></path>
  <circle cx="38" cy="44" r="8"></circle>
  <circle cx="62" cy="44" r="8"></circle>
  <circle cx="38" cy="44" r="3" fill="currentColor"></circle>
  <circle cx="62" cy="44" r="3" fill="currentColor"></circle>
  <path d="M 46 54 L 50 60 L 54 54 Z"></path>
  <path d="M 30 64 Q 36 68 42 64" stroke-opacity="0.55"></path>
  <path d="M 44 66 Q 50 70 56 66" stroke-opacity="0.55"></path>
  <path d="M 58 64 Q 64 68 70 64" stroke-opacity="0.55"></path>
  <path d="M 32 72 Q 40 78 50 78 Q 60 78 68 72" stroke-opacity="0.55"></path>
  <line x1="42" y1="84" x2="42" y2="90"></line>
  <line x1="58" y1="84" x2="58" y2="90"></line>
  <path d="M 38 90 L 42 90 L 44 88 M 42 90 L 40 88" stroke-opacity="0.7"></path>
  <path d="M 54 90 L 58 90 L 60 88 M 58 90 L 56 88" stroke-opacity="0.7"></path>
</svg>