<svg xmlns="http://www.w3.org/2000/svg" viewBox="0 0 240 60" fill="none" stroke="currentColor" stroke-width="2" stroke-linecap="square" stroke-linejoin="miter" role="img" aria-label="Greek Key Band">
  <path d="M 0 50 L 0 14 L 30 14 L 30 38 L 14 38 L 14 26 L 22 26 L 22 32"></path>
  <path d="M 40 50 L 40 14 L 70 14 L 70 38 L 54 38 L 54 26 L 62 26 L 62 32"></path>
  <path d="M 80 50 L 80 14 L 110 14 L 110 38 L 94 38 L 94 26 L 102 26 L 102 32"></path>
  <path d="M 120 50 L 120 14 L 150 14 L 150 38 L 134 38 L 134 26 L 142 26 L 142 32"></path>
  <path d="M 160 50 L 160 14 L 190 14 L 190 38 L 174 38 L 174 26 L 182 26 L 182 32"></path>
  <path d="M 200 50 L 200 14 L 230 14 L 230 38 L 214 38 L 214 26 L 222 26 L 222 32"></path>
  <line x1="0" y1="54" x2="240" y2="54" stroke-width="1.4"></line>
  <line x1="0" y1="10" x2="240" y2="10" stroke-width="1.4"></line>
</svg>