<svg xmlns="http://www.w3.org/2000/svg" viewBox="0 0 180 200" fill="none" stroke="currentColor" stroke-width="1.6" stroke-linecap="round" stroke-linejoin="round" role="img" aria-label="Medusa">
  
  <path d="M 66 92 Q 62 70 90 70 Q 118 70 114 92 Q 114 108 90 112 Q 66 108 66 92 Z"></path>
  <circle cx="78" cy="88" r="2.4" fill="#E08456" stroke="none"></circle>
  <circle cx="102" cy="88" r="2.4" fill="#E08456" stroke="none"></circle>
  <path d="M 86 96 L 90 102 L 94 96" opacity="0.7"></path>
  <path d="M 82 106 Q 90 110 98 106" opacity="0.6"></path>
  
  <path d="M 70 72 Q 56 60 58 44 Q 60 32 48 30 Q 52 38 46 44"></path><path d="M 78 68 Q 70 50 76 34 Q 82 22 72 16"></path><path d="M 90 66 Q 90 46 90 30 Q 90 18 90 12"></path><path d="M 102 68 Q 110 50 104 34 Q 98 22 108 16"></path><path d="M 110 72 Q 124 60 122 44 Q 120 32 132 30 Q 128 38 134 44"></path><path d="M 66 84 Q 48 80 40 66 Q 34 56 24 60"></path><path d="M 114 84 Q 132 80 140 66 Q 146 56 156 60"></path>
  
  <circle cx="46" cy="30" r="2.2" fill="#E08456" stroke="none"></circle><circle cx="72" cy="16" r="2.2" fill="#E08456" stroke="none"></circle><circle cx="90" cy="12" r="2.2" fill="#E08456" stroke="none"></circle><circle cx="108" cy="16" r="2.2" fill="#E08456" stroke="none"></circle><circle cx="132" cy="30" r="2.2" fill="#E08456" stroke="none"></circle><circle cx="24" cy="60" r="2.2" fill="#E08456" stroke="none"></circle><circle cx="156" cy="60" r="2.2" fill="#E08456" stroke="none"></circle>
  <path d="M 46 30 l -3 -3 M 46 30 l 3 -3" stroke="#E08456" opacity="0.7"></path><path d="M 72 16 l -3 -3 M 72 16 l 3 -3" stroke="#E08456" opacity="0.7"></path><path d="M 90 12 l -3 -3 M 90 12 l 3 -3" stroke="#E08456" opacity="0.7"></path><path d="M 108 16 l -3 -3 M 108 16 l 3 -3" stroke="#E08456" opacity="0.7"></path><path d="M 132 30 l -3 -3 M 132 30 l 3 -3" stroke="#E08456" opacity="0.7"></path>
  
  <path d="M 70 110 Q 50 122 48 148 M 110 110 Q 130 122 132 148" opacity="0.7"></path>
  <path d="M 70 116 Q 90 124 110 116" opacity="0.5"></path>
</svg>