<svg xmlns="http://www.w3.org/2000/svg" viewBox="0 0 100 100" fill="none" stroke="currentColor" stroke-width="1.4" stroke-linecap="round" stroke-linejoin="round" role="img" aria-label="Philosopher">
  
  <circle cx="50" cy="32" r="13"></circle>
  
  <path d="M37 31 Q39 19 50 18 Q61 19 63 31" stroke-opacity="0.7"></path>
  
  <line x1="44" y1="31" x2="46.5" y2="31" stroke-opacity="0.7"></line>
  <line x1="53.5" y1="31" x2="56" y2="31" stroke-opacity="0.7"></line>
  <path d="M50 33 L49 37 Q50 38 51 37" stroke-opacity="0.5"></path>
  
  <path d="M39 39 Q41 57 50 60 Q59 57 61 39" stroke-opacity="0.85"></path>
  <path d="M44 47 Q50 51 56 47" stroke-opacity="0.45"></path>
  <path d="M46 53 Q50 56 54 53" stroke-opacity="0.4"></path>
  
  <path d="M33 64 Q33 55 43 53 L57 53 Q67 55 67 64 L71 85 L29 85 Z"></path>
  
  <path d="M44 57 L40 83" stroke-opacity="0.5"></path>
  <path d="M56 57 L60 83" stroke-opacity="0.5"></path>
  <path d="M50 56 L50 85" stroke-opacity="0.4"></path>
  
  <line x1="26" y1="89" x2="74" y2="89" stroke-opacity="0.6"></line>
</svg>