<svg xmlns="http://www.w3.org/2000/svg" viewBox="0 0 120 200" fill="none" stroke="currentColor" stroke-width="1.6" stroke-linecap="round" stroke-linejoin="round" role="img" aria-label="Amphora Silhouette">
  <path d="M 48 24 L 72 24 L 70 40 Q 90 52 90 88 Q 90 130 60 150 Q 30 130 30 88 Q 30 52 50 40 Z"></path>
  <path d="M 50 40 Q 36 36 32 24 Q 30 16 40 18" stroke-opacity="0.7"></path>
  <path d="M 70 40 Q 84 36 88 24 Q 90 16 80 18" stroke-opacity="0.7"></path>
  <line x1="44" y1="24" x2="76" y2="24"></line>
  <line x1="60" y1="150" x2="60" y2="172"></line>
  <ellipse cx="60" cy="176" rx="14" ry="4"></ellipse>
  <path d="M 38 78 Q 60 84 82 78" stroke-opacity="0.4"></path>
  <path d="M 36 96 Q 60 102 84 96" stroke-opacity="0.4"></path>
</svg>