<svg xmlns="http://www.w3.org/2000/svg" viewBox="0 0 240 120" fill="none" stroke="currentColor" stroke-width="1.4" stroke-linecap="round" stroke-linejoin="round" role="img" aria-label="Colonnade">
  <path d="M 10 28 L 230 28 L 222 18 L 18 18 Z"></path>
  <line x1="6" y1="32" x2="234" y2="32"></line>
  <g>
    <rect x="21" y="34" width="18" height="6"></rect>
    <line x1="24" y1="40" x2="24" y2="100" stroke-opacity="0.7"></line>
    <line x1="30" y1="40" x2="30" y2="100" stroke-opacity="0.5"></line>
    <line x1="36" y1="40" x2="36" y2="100" stroke-opacity="0.7"></line>
    <rect x="20" y="100" width="20" height="6"></rect>
  </g><g>
    <rect x="66" y="34" width="18" height="6"></rect>
    <line x1="69" y1="40" x2="69" y2="100" stroke-opacity="0.7"></line>
    <line x1="75" y1="40" x2="75" y2="100" stroke-opacity="0.5"></line>
    <line x1="81" y1="40" x2="81" y2="100" stroke-opacity="0.7"></line>
    <rect x="65" y="100" width="20" height="6"></rect>
  </g><g>
    <rect x="111" y="34" width="18" height="6"></rect>
    <line x1="114" y1="40" x2="114" y2="100" stroke-opacity="0.7"></line>
    <line x1="120" y1="40" x2="120" y2="100" stroke-opacity="0.5"></line>
    <line x1="126" y1="40" x2="126" y2="100" stroke-opacity="0.7"></line>
    <rect x="110" y="100" width="20" height="6"></rect>
  </g><g>
    <rect x="156" y="34" width="18" height="6"></rect>
    <line x1="159" y1="40" x2="159" y2="100" stroke-opacity="0.7"></line>
    <line x1="165" y1="40" x2="165" y2="100" stroke-opacity="0.5"></line>
    <line x1="171" y1="40" x2="171" y2="100" stroke-opacity="0.7"></line>
    <rect x="155" y="100" width="20" height="6"></rect>
  </g><g>
    <rect x="201" y="34" width="18" height="6"></rect>
    <line x1="204" y1="40" x2="204" y2="100" stroke-opacity="0.7"></line>
    <line x1="210" y1="40" x2="210" y2="100" stroke-opacity="0.5"></line>
    <line x1="216" y1="40" x2="216" y2="100" stroke-opacity="0.7"></line>
    <rect x="200" y="100" width="20" height="6"></rect>
  </g>
  <line x1="6" y1="110" x2="234" y2="110"></line>
</svg>