<svg xmlns="http://www.w3.org/2000/svg" viewBox="0 0 220 180" fill="none" stroke="currentColor" stroke-width="1.6" stroke-linecap="round" stroke-linejoin="round" role="img" aria-label="Griffin">
  
  <path d="M 80 124 Q 70 104 84 94 Q 110 84 140 92 Q 160 98 162 124"></path>
  <path d="M 86 122 Q 80 138 86 152 M 102 124 Q 108 140 100 154" opacity="0.85"></path>
  <path d="M 144 122 Q 138 138 146 152 M 156 122 Q 162 136 154 150" opacity="0.85"></path>
  
  <path d="M 140 92 Q 158 80 162 62 Q 164 52 174 50 Q 168 58 170 64 L 182 60 Q 184 66 174 70 Q 176 78 166 80 Q 158 86 150 84"></path>
  <path d="M 174 50 L 178 42 M 168 52 L 170 44" opacity="0.7"></path>
  <circle cx="164" cy="62" r="1.6" fill="#E08456" stroke="none"></circle>
  <path d="M 170 64 L 184 60" stroke="#E08456" opacity="0.7"></path>
  
  <path d="M 150 78 Q 144 80 146 88" opacity="0.5"></path>
  
  <path d="M 116 92 Q 100 58 64 44 Q 84 52 98 68 Q 82 48 58 38 Q 80 52 96 66 Q 88 80 116 92" stroke="#E08456" opacity="0.9"></path>
  <path d="M 116 92 Q 102 70 78 58" stroke="#E08456" opacity="0.5"></path>
  
  <path d="M 80 116 Q 60 118 54 138 Q 52 150 62 150 Q 56 142 66 138" opacity="0.7"></path>
  <path d="M 60 148 Q 56 154 62 158 Q 66 152 64 148" opacity="0.6"></path>
</svg>