<svg xmlns="http://www.w3.org/2000/svg" viewBox="0 0 200 200" fill="none" stroke="currentColor" stroke-width="1.2" stroke-linecap="round" role="img" aria-label="Sunburst Rays">
  <circle cx="100" cy="100" r="20" stroke-opacity="0.5"></circle>
  <g stroke-opacity="0.7">
    <line x1="100" y1="70" x2="100" y2="20"></line>
    <line x1="100" y1="130" x2="100" y2="180"></line>
    <line x1="70" y1="100" x2="20" y2="100"></line>
    <line x1="130" y1="100" x2="180" y2="100"></line>
    <line x1="79" y1="79" x2="44" y2="44"></line>
    <line x1="121" y1="79" x2="156" y2="44"></line>
    <line x1="79" y1="121" x2="44" y2="156"></line>
    <line x1="121" y1="121" x2="156" y2="156"></line>
  </g>
  <g stroke-opacity="0.4">
    <line x1="100" y1="68" x2="100" y2="34" transform="rotate(22.5 100 100)"></line>
    <line x1="100" y1="68" x2="100" y2="34" transform="rotate(67.5 100 100)"></line>
    <line x1="100" y1="68" x2="100" y2="34" transform="rotate(112.5 100 100)"></line>
    <line x1="100" y1="68" x2="100" y2="34" transform="rotate(157.5 100 100)"></line>
    <line x1="100" y1="68" x2="100" y2="34" transform="rotate(202.5 100 100)"></line>
    <line x1="100" y1="68" x2="100" y2="34" transform="rotate(247.5 100 100)"></line>
    <line x1="100" y1="68" x2="100" y2="34" transform="rotate(292.5 100 100)"></line>
    <line x1="100" y1="68" x2="100" y2="34" transform="rotate(337.5 100 100)"></line>
  </g>
</svg>