<svg xmlns="http://www.w3.org/2000/svg" viewBox="0 0 260 180" fill="none" stroke="currentColor" stroke-width="1.6" stroke-linecap="round" stroke-linejoin="round" role="img" aria-label="Trireme">
  
  <path d="M 20 104 Q 24 132 60 134 L 196 134 Q 226 134 244 110 L 232 104 Z"></path>
  
  <path d="M 244 110 L 256 112 L 248 100 Z"></path>
  <circle cx="232" cy="112" r="4"></circle><circle cx="232" cy="112" r="1.4" fill="currentColor" stroke="none"></circle>
  
  <path d="M 28 104 Q 14 100 12 84 Q 12 74 22 76" opacity="0.85"></path>
  
  <line x1="46" y1="120" x2="36" y2="146" opacity="0.55"></line><line x1="58" y1="120" x2="48" y2="146" opacity="0.55"></line><line x1="70" y1="120" x2="60" y2="146" opacity="0.55"></line><line x1="82" y1="120" x2="72" y2="146" opacity="0.55"></line><line x1="94" y1="120" x2="84" y2="146" opacity="0.55"></line><line x1="106" y1="120" x2="96" y2="146" opacity="0.55"></line><line x1="118" y1="120" x2="108" y2="146" opacity="0.55"></line><line x1="130" y1="120" x2="120" y2="146" opacity="0.55"></line><line x1="142" y1="120" x2="132" y2="146" opacity="0.55"></line><line x1="154" y1="120" x2="144" y2="146" opacity="0.55"></line><line x1="166" y1="120" x2="156" y2="146" opacity="0.55"></line><line x1="178" y1="120" x2="168" y2="146" opacity="0.55"></line><line x1="190" y1="120" x2="180" y2="146" opacity="0.55"></line><line x1="202" y1="120" x2="192" y2="146" opacity="0.55"></line>
  <line x1="50" y1="126" x2="38" y2="156" opacity="0.4"></line><line x1="62" y1="126" x2="50" y2="156" opacity="0.4"></line><line x1="74" y1="126" x2="62" y2="156" opacity="0.4"></line><line x1="86" y1="126" x2="74" y2="156" opacity="0.4"></line><line x1="98" y1="126" x2="86" y2="156" opacity="0.4"></line><line x1="110" y1="126" x2="98" y2="156" opacity="0.4"></line><line x1="122" y1="126" x2="110" y2="156" opacity="0.4"></line><line x1="134" y1="126" x2="122" y2="156" opacity="0.4"></line><line x1="146" y1="126" x2="134" y2="156" opacity="0.4"></line><line x1="158" y1="126" x2="146" y2="156" opacity="0.4"></line><line x1="170" y1="126" x2="158" y2="156" opacity="0.4"></line><line x1="182" y1="126" x2="170" y2="156" opacity="0.4"></line><line x1="194" y1="126" x2="182" y2="156" opacity="0.4"></line><line x1="206" y1="126" x2="194" y2="156" opacity="0.4"></line>
  <line x1="40" y1="120" x2="210" y2="120" opacity="0.5"></line>
  <line x1="46" y1="112" x2="220" y2="112" opacity="0.4"></line>
  
  <line x1="130" y1="104" x2="130" y2="24"></line>
  <path d="M 130 30 L 196 36 L 196 92 L 130 96 Z"></path>
  <path d="M 130 30 Q 100 34 70 30 L 70 92 Q 100 96 130 96" opacity="0.6"></path>
  <line x1="64" y1="28" x2="202" y2="34" stroke-width="1.4"></line>
  <line x1="148" y1="42" x2="180" y2="44" opacity="0.4"></line>
  <line x1="148" y1="56" x2="184" y2="58" opacity="0.4"></line>
  <line x1="148" y1="70" x2="182" y2="72" opacity="0.4"></line>
  
  <path d="M 130 24 L 146 20 L 134 16" stroke="#E08456" opacity="0.85"></path>
  
  <path d="M 8 160 Q 40 152 72 160 T 136 160 T 200 160 T 256 158" opacity="0.45"></path>
  <path d="M 8 170 Q 48 164 88 170 T 168 170 T 256 168" opacity="0.3"></path>
</svg>