<svg xmlns="http://www.w3.org/2000/svg" viewBox="0 0 100 100" fill="none" stroke="currentColor" stroke-width="1.4" stroke-linecap="round" stroke-linejoin="round" role="img" aria-label="Acropolis / Parthenon">
  <path d="M 4 86 Q 22 78 50 78 Q 78 78 96 86" stroke-opacity="0.5"></path>
  <line x1="14" y1="78" x2="86" y2="78"></line>
  <line x1="16" y1="75" x2="84" y2="75"></line>
  <line x1="18" y1="72" x2="82" y2="72"></line>
  <line x1="22" y1="72" x2="22" y2="40"></line><line x1="24" y1="72" x2="24" y2="40"></line>
  <rect x="21" y="38" width="4" height="2"></rect>
  <line x1="30" y1="72" x2="30" y2="40"></line><line x1="32" y1="72" x2="32" y2="40"></line>
  <rect x="29" y="38" width="4" height="2"></rect>
  <line x1="38" y1="72" x2="38" y2="40"></line><line x1="40" y1="72" x2="40" y2="40"></line>
  <rect x="37" y="38" width="4" height="2"></rect>
  <line x1="46" y1="72" x2="46" y2="40"></line><line x1="48" y1="72" x2="48" y2="40"></line>
  <rect x="45" y="38" width="4" height="2"></rect>
  <line x1="54" y1="72" x2="54" y2="40"></line><line x1="56" y1="72" x2="56" y2="40"></line>
  <rect x="53" y="38" width="4" height="2"></rect>
  <line x1="62" y1="72" x2="62" y2="40"></line><line x1="64" y1="72" x2="64" y2="40"></line>
  <rect x="61" y="38" width="4" height="2"></rect>
  <line x1="70" y1="72" x2="70" y2="40"></line><line x1="72" y1="72" x2="72" y2="40"></line>
  <rect x="69" y="38" width="4" height="2"></rect>
  <line x1="78" y1="72" x2="78" y2="40"></line><line x1="80" y1="72" x2="80" y2="40"></line>
  <rect x="77" y="38" width="4" height="2"></rect>
  <line x1="18" y1="38" x2="84" y2="38"></line>
  <line x1="18" y1="34" x2="84" y2="34"></line>
  <line x1="18" y1="30" x2="84" y2="30"></line>
  <line x1="23" y1="30" x2="23" y2="34" stroke-opacity="0.6"></line>
  <line x1="31" y1="30" x2="31" y2="34" stroke-opacity="0.6"></line>
  <line x1="39" y1="30" x2="39" y2="34" stroke-opacity="0.6"></line>
  <line x1="47" y1="30" x2="47" y2="34" stroke-opacity="0.6"></line>
  <line x1="55" y1="30" x2="55" y2="34" stroke-opacity="0.6"></line>
  <line x1="63" y1="30" x2="63" y2="34" stroke-opacity="0.6"></line>
  <line x1="71" y1="30" x2="71" y2="34" stroke-opacity="0.6"></line>
  <line x1="79" y1="30" x2="79" y2="34" stroke-opacity="0.6"></line>
  <path d="M 16 30 L 50 14 L 86 30"></path>
  <circle cx="50" cy="12" r="1.5"></circle>
</svg>
