<svg xmlns="http://www.w3.org/2000/svg" viewBox="0 0 100 100" fill="none" stroke="currentColor" stroke-width="1.4" stroke-linecap="round" stroke-linejoin="round" role="img" aria-label="Agora / Stoa">
  <line x1="6" y1="28" x2="94" y2="28"></line>
  <line x1="6" y1="22" x2="94" y2="22"></line>
  <line x1="20" y1="22" x2="20" y2="28" stroke-opacity="0.4"></line>
  <line x1="36" y1="22" x2="36" y2="28" stroke-opacity="0.4"></line>
  <line x1="52" y1="22" x2="52" y2="28" stroke-opacity="0.4"></line>
  <line x1="68" y1="22" x2="68" y2="28" stroke-opacity="0.4"></line>
  <line x1="84" y1="22" x2="84" y2="28" stroke-opacity="0.4"></line>
  <line x1="14" y1="28" x2="14" y2="80"></line><line x1="16" y1="28" x2="16" y2="80"></line>
  <rect x="12" y="80" width="6" height="3"></rect>
  <line x1="30" y1="28" x2="30" y2="80"></line><line x1="32" y1="28" x2="32" y2="80"></line>
  <rect x="28" y="80" width="6" height="3"></rect>
  <line x1="46" y1="28" x2="46" y2="80"></line><line x1="48" y1="28" x2="48" y2="80"></line>
  <rect x="44" y="80" width="6" height="3"></rect>
  <line x1="62" y1="28" x2="62" y2="80"></line><line x1="64" y1="28" x2="64" y2="80"></line>
  <rect x="60" y="80" width="6" height="3"></rect>
  <line x1="78" y1="28" x2="78" y2="80"></line><line x1="80" y1="28" x2="80" y2="80"></line>
  <rect x="76" y="80" width="6" height="3"></rect>
  <line x1="6" y1="83" x2="94" y2="83"></line>
  <line x1="6" y1="86" x2="94" y2="86" stroke-opacity="0.6"></line>
  <g stroke-opacity="0.7">
    <circle cx="22" cy="74" r="1.2"></circle><line x1="22" y1="75.5" x2="22" y2="80"></line>
    <circle cx="38" cy="72" r="1.4"></circle><line x1="38" y1="73.6" x2="38" y2="80"></line>
    <line x1="38" y1="76" x2="42" y2="79"></line>
    <circle cx="56" cy="74" r="1.2"></circle><line x1="56" y1="75.5" x2="56" y2="80"></line>
  </g>
</svg>
