<svg xmlns="http://www.w3.org/2000/svg" viewBox="0 0 100 100" fill="none" stroke="currentColor" stroke-width="1.4" stroke-linecap="round" stroke-linejoin="round" role="img" aria-label="Amphora">
  <ellipse cx="50" cy="14" rx="10" ry="2.5"></ellipse>
  <line x1="40" y1="14" x2="38" y2="28"></line>
  <line x1="60" y1="14" x2="62" y2="28"></line>
  <path d="M 38 28 Q 22 32 22 50 Q 22 70 36 80 L 64 80 Q 78 70 78 50 Q 78 32 62 28"></path>
  <path d="M 40 22 Q 30 22 28 36"></path>
  <path d="M 60 22 Q 70 22 72 36"></path>
  <path d="M 36 80 L 38 88 L 62 88 L 64 80"></path>
  <line x1="34" y1="88" x2="66" y2="88" stroke-width="2"></line>
  <path d="M 26 44 L 74 44" stroke-opacity="0.45"></path>
  <path d="M 26 50 L 74 50" stroke-opacity="0.45"></path>
  <path d="M 44 58 Q 46 54 48 58 L 48 66 L 46 70 L 48 74 M 48 60 L 52 62 L 50 66 M 50 60 L 54 56" stroke-opacity="0.5"></path>
</svg>
