<svg xmlns="http://www.w3.org/2000/svg" viewBox="0 0 100 100" fill="none" stroke="currentColor" stroke-width="1.4" stroke-linecap="round" stroke-linejoin="round" role="img" aria-label="Book">
  <path d="M 14 22 Q 30 18 50 24 Q 70 18 86 22 L 86 78 Q 70 74 50 80 Q 30 74 14 78 Z"></path>
  <line x1="50" y1="24" x2="50" y2="80" stroke-opacity="0.55"></line>
  <path d="M 20 32 Q 32 30 44 34" stroke-opacity="0.55"></path>
  <path d="M 20 40 Q 32 38 44 42" stroke-opacity="0.55"></path>
  <path d="M 20 48 Q 32 46 42 50" stroke-opacity="0.55"></path>
  <path d="M 20 56 Q 32 54 44 58" stroke-opacity="0.55"></path>
  <path d="M 20 64 Q 30 62 40 66" stroke-opacity="0.55"></path>
  <path d="M 56 34 Q 68 30 80 32" stroke-opacity="0.55"></path>
  <path d="M 56 42 Q 68 38 80 40" stroke-opacity="0.55"></path>
  <path d="M 58 50 Q 68 46 80 48" stroke-opacity="0.55"></path>
  <path d="M 56 58 Q 68 54 80 56" stroke-opacity="0.55"></path>
  <path d="M 60 66 Q 68 62 76 64" stroke-opacity="0.55"></path>
  <line x1="50" y1="20" x2="50" y2="14" stroke-opacity="0.7"></line>
  <circle cx="50" cy="14" r="1.6" fill="currentColor" stroke="none"></circle>
</svg>