<svg xmlns="http://www.w3.org/2000/svg" viewBox="0 0 100 100" fill="none" stroke="currentColor" stroke-width="1.4" stroke-linecap="round" stroke-linejoin="round" role="img" aria-label="Building / Government">
  <path d="M 14 84 L 14 38 L 50 18 L 86 38 L 86 84 Z"></path>
  <line x1="10" y1="38" x2="90" y2="38" stroke-width="1.8"></line>
  <line x1="14" y1="84" x2="86" y2="84" stroke-width="1.8"></line>
  <line x1="8" y1="88" x2="92" y2="88" stroke-width="1.8"></line>
  <line x1="22" y1="38" x2="22" y2="78" stroke-opacity="0.85"></line>
  <line x1="34" y1="38" x2="34" y2="78" stroke-opacity="0.85"></line>
  <line x1="46" y1="38" x2="46" y2="78" stroke-opacity="0.85"></line>
  <line x1="54" y1="38" x2="54" y2="78" stroke-opacity="0.85"></line>
  <line x1="66" y1="38" x2="66" y2="78" stroke-opacity="0.85"></line>
  <line x1="78" y1="38" x2="78" y2="78" stroke-opacity="0.85"></line>
  <line x1="18" y1="78" x2="82" y2="78"></line>
  <path d="M 32 38 L 50 24 L 68 38" stroke-opacity="0.55"></path>
  <line x1="48" y1="22" x2="52" y2="22" stroke-opacity="0.55"></line>
</svg>