<svg xmlns="http://www.w3.org/2000/svg" viewBox="0 0 100 100" fill="none" stroke="currentColor" stroke-width="1.4" stroke-linecap="round" stroke-linejoin="round" role="img" aria-label="Cyclops Eye">
  <line x1="86.00" y1="50.00" x2="94.00" y2="50.00" stroke-opacity="1"></line>
  <line x1="81.18" y1="68.00" x2="88.11" y2="72.00" stroke-opacity="0.5"></line>
  <line x1="68.00" y1="81.18" x2="72.00" y2="88.11" stroke-opacity="1"></line>
  <line x1="50.00" y1="86.00" x2="50.00" y2="94.00" stroke-opacity="0.5"></line>
  <line x1="32.00" y1="81.18" x2="28.00" y2="88.11" stroke-opacity="1"></line>
  <line x1="18.82" y1="68.00" x2="11.89" y2="72.00" stroke-opacity="0.5"></line>
  <line x1="14.00" y1="50.00" x2="6.00" y2="50.00" stroke-opacity="1"></line>
  <line x1="18.82" y1="32.00" x2="11.89" y2="28.00" stroke-opacity="0.5"></line>
  <line x1="32.00" y1="18.82" x2="28.00" y2="11.89" stroke-opacity="1"></line>
  <line x1="50.00" y1="14.00" x2="50.00" y2="6.00" stroke-opacity="0.5"></line>
  <line x1="68.00" y1="18.82" x2="72.00" y2="11.89" stroke-opacity="1"></line>
  <line x1="81.18" y1="32.00" x2="88.11" y2="28.00" stroke-opacity="0.5"></line>
  <path d="M 16 50 Q 50 26 84 50 Q 50 74 16 50 Z"></path>
  <circle cx="50" cy="50" r="12"></circle>
  <circle cx="50" cy="50" r="4" fill="currentColor"></circle>
  <path d="M 24 36 Q 50 24 76 36" stroke-width="2"></path>
</svg>
