<svg xmlns="http://www.w3.org/2000/svg" viewBox="0 0 100 100" fill="none" stroke="currentColor" stroke-width="1.4" stroke-linecap="round" stroke-linejoin="round" role="img" aria-label="Palm of Victory">
  <path d="M 50 86 L 50 30"></path>
  <path d="M 50 30 Q 38 26 30 18 Q 28 12 34 14"></path>
  <path d="M 50 30 Q 62 26 70 18 Q 72 12 66 14"></path>
  <path d="M 50 30 Q 44 22 36 22 Q 32 24 36 28" stroke-opacity="0.7"></path>
  <path d="M 50 30 Q 56 22 64 22 Q 68 24 64 28" stroke-opacity="0.7"></path>
  <path d="M 50 30 Q 50 18 46 12" stroke-opacity="0.7"></path>
  <path d="M 50 30 Q 50 18 54 12" stroke-opacity="0.7"></path>
  <path d="M 50 36 Q 40 38 32 36" stroke-opacity="0.6"></path>
  <path d="M 50 36 Q 60 38 68 36" stroke-opacity="0.6"></path>
  <path d="M 50 44 Q 42 46 36 44" stroke-opacity="0.55"></path>
  <path d="M 50 44 Q 58 46 64 44" stroke-opacity="0.55"></path>
  <path d="M 36 86 L 64 86" stroke-width="1.8"></path>
  <path d="M 30 90 L 70 90" stroke-opacity="0.4"></path>
</svg>