<svg xmlns="http://www.w3.org/2000/svg" viewBox="0 0 120 120" fill="currentColor" stroke="none" role="img" aria-label="Dot Grid">
  <circle cx="10" cy="10" r="1.6" opacity="0.3"></circle><circle cx="30" cy="10" r="1.6" opacity="0.8"></circle><circle cx="50" cy="10" r="1.6" opacity="0.3"></circle><circle cx="70" cy="10" r="1.6" opacity="0.8"></circle><circle cx="90" cy="10" r="1.6" opacity="0.3"></circle><circle cx="110" cy="10" r="1.6" opacity="0.8"></circle><circle cx="10" cy="30" r="1.6" opacity="0.8"></circle><circle cx="30" cy="30" r="1.6" opacity="0.3"></circle><circle cx="50" cy="30" r="1.6" opacity="0.8"></circle><circle cx="70" cy="30" r="1.6" opacity="0.3"></circle><circle cx="90" cy="30" r="1.6" opacity="0.8"></circle><circle cx="110" cy="30" r="1.6" opacity="0.3"></circle><circle cx="10" cy="50" r="1.6" opacity="0.3"></circle><circle cx="30" cy="50" r="1.6" opacity="0.8"></circle><circle cx="50" cy="50" r="1.6" opacity="0.3"></circle><circle cx="70" cy="50" r="1.6" opacity="0.8"></circle><circle cx="90" cy="50" r="1.6" opacity="0.3"></circle><circle cx="110" cy="50" r="1.6" opacity="0.8"></circle><circle cx="10" cy="70" r="1.6" opacity="0.8"></circle><circle cx="30" cy="70" r="1.6" opacity="0.3"></circle><circle cx="50" cy="70" r="1.6" opacity="0.8"></circle><circle cx="70" cy="70" r="1.6" opacity="0.3"></circle><circle cx="90" cy="70" r="1.6" opacity="0.8"></circle><circle cx="110" cy="70" r="1.6" opacity="0.3"></circle><circle cx="10" cy="90" r="1.6" opacity="0.3"></circle><circle cx="30" cy="90" r="1.6" opacity="0.8"></circle><circle cx="50" cy="90" r="1.6" opacity="0.3"></circle><circle cx="70" cy="90" r="1.6" opacity="0.8"></circle><circle cx="90" cy="90" r="1.6" opacity="0.3"></circle><circle cx="110" cy="90" r="1.6" opacity="0.8"></circle><circle cx="10" cy="110" r="1.6" opacity="0.8"></circle><circle cx="30" cy="110" r="1.6" opacity="0.3"></circle><circle cx="50" cy="110" r="1.6" opacity="0.8"></circle><circle cx="70" cy="110" r="1.6" opacity="0.3"></circle><circle cx="90" cy="110" r="1.6" opacity="0.8"></circle><circle cx="110" cy="110" r="1.6" opacity="0.3"></circle>
</svg>