<svg xmlns="http://www.w3.org/2000/svg" viewBox="0 0 240 180" fill="none" stroke="currentColor" stroke-width="1.6" stroke-linecap="round" stroke-linejoin="round" role="img" aria-label="Pegasus">
  
  <path d="M 70 120 Q 60 100 72 90 Q 96 80 130 86 Q 150 90 158 104 L 156 120"></path>
  
  <path d="M 80 118 Q 74 134 80 150 M 96 120 Q 102 136 94 152" opacity="0.85"></path>
  <path d="M 138 118 Q 132 134 140 150 M 150 116 Q 158 132 150 148" opacity="0.85"></path>
  
  <path d="M 130 86 Q 150 74 158 56 Q 162 46 174 44 L 184 36 Q 190 40 186 48 L 178 54 Q 180 62 172 66 Q 164 78 152 80"></path>
  <path d="M 184 36 L 188 28 M 178 38 L 180 30" opacity="0.7"></path>
  <circle cx="176" cy="50" r="1.6" fill="#E08456" stroke="none"></circle>
  
  <path d="M 156 58 Q 148 60 150 70 Q 142 72 144 82" opacity="0.6"></path>
  
  <path d="M 110 88 Q 90 50 50 36 Q 70 44 86 60 Q 70 38 44 28 Q 66 40 84 56 Q 72 36 56 22 Q 80 40 100 64 Q 96 74 110 88" stroke="#E08456" opacity="0.9"></path>
  <path d="M 110 88 Q 96 64 70 52" stroke="#E08456" opacity="0.5"></path>
  
  <path d="M 70 110 Q 50 112 42 132 Q 38 144 48 148 Q 44 134 58 128" opacity="0.7"></path>
  
  <path d="M 30 158 Q 60 152 90 158 T 160 158 T 220 156" opacity="0.3"></path>
</svg>