<svg xmlns="http://www.w3.org/2000/svg" viewBox="0 0 220 170" fill="none" stroke="currentColor" stroke-width="1.6" stroke-linecap="round" stroke-linejoin="round" role="img" aria-label="Sphinx">
  
  <path d="M 40 130 Q 36 112 56 110 L 150 110 Q 168 110 170 96"></path>
  <path d="M 40 130 L 150 130"></path>
  
  <path d="M 150 110 L 150 130 M 162 112 L 162 130" opacity="0.7"></path>
  <line x1="146" y1="130" x2="166" y2="130" opacity="0.6"></line>
  
  <path d="M 52 112 Q 44 122 52 130" opacity="0.5"></path>
  
  <path d="M 158 96 Q 154 74 172 70 Q 190 70 192 90 Q 192 102 178 104"></path>
  <path d="M 172 70 Q 168 60 176 56 Q 188 54 190 64 Q 196 72 188 80" opacity="0.7"></path>
  <path d="M 158 88 L 152 100 L 160 102" opacity="0.6"></path>
  <path d="M 188 86 L 196 98 L 188 102" opacity="0.6"></path>
  <circle cx="170" cy="86" r="1.6" fill="#E08456" stroke="none"></circle>
  <circle cx="182" cy="86" r="1.6" fill="#E08456" stroke="none"></circle>
  <path d="M 172 94 Q 177 96 182 94" opacity="0.6"></path>
  
  <path d="M 90 110 Q 80 78 50 64 Q 70 72 84 88 Q 70 68 48 58 Q 72 74 88 90" stroke="#E08456" opacity="0.85"></path>
  
  <path d="M 40 124 Q 24 128 22 144" opacity="0.6"></path>
  <line x1="40" y1="148" x2="170" y2="148" opacity="0.25"></line>
</svg>