<svg xmlns="http://www.w3.org/2000/svg" viewBox="0 0 100 100" fill="none" stroke="currentColor" stroke-width="1.4" stroke-linecap="round" stroke-linejoin="round" role="img" aria-label="Dove">
  <path d="M 28 56 Q 40 46 56 48 Q 68 50 74 42 Q 78 38 74 34 Q 72 40 64 40 Q 50 36 40 44 Q 30 50 28 56 Z"></path>
  <path d="M 44 50 Q 38 38 30 36 Q 36 46 38 52" opacity="0.8"></path>
  <circle cx="70" cy="38" r="1" fill="currentColor" stroke="none"></circle>
  <path d="M 28 56 Q 32 64 40 64 L 56 60" opacity="0.7"></path>
  <path d="M 44 64 L 42 72 M 50 62 L 50 70" opacity="0.6"></path>
  <path d="M 56 60 Q 64 60 68 56" opacity="0.5"></path>
</svg>