<svg xmlns="http://www.w3.org/2000/svg" viewBox="0 0 100 100" fill="none" stroke="currentColor" stroke-width="1.4" stroke-linecap="round" stroke-linejoin="round" role="img" aria-label="Eagle of Zeus">
  <path d="M 50 30 Q 46 22 42 22 Q 38 22 38 28 L 42 32"></path>
  <circle cx="42" cy="32" r="1.4" fill="currentColor" stroke="none"></circle>
  <path d="M 38 28 L 32 26"></path>
  <path d="M 42 36 Q 30 38 18 32 Q 8 26 6 18 Q 14 24 26 26 Q 18 18 16 8 Q 24 16 32 22"></path>
  <path d="M 42 36 Q 30 42 22 40 Q 14 38 8 32 Q 18 36 26 36 Q 18 30 16 22" stroke-opacity="0.5"></path>
  <path d="M 50 38 Q 56 38 58 36"></path>
  <path d="M 58 36 Q 70 38 82 32 Q 92 26 94 18 Q 86 24 74 26 Q 82 18 84 8 Q 76 16 68 22"></path>
  <path d="M 58 36 Q 70 42 78 40 Q 86 38 92 32 Q 82 36 74 36 Q 82 30 84 22" stroke-opacity="0.5"></path>
  <path d="M 46 40 Q 44 56 48 70 Q 50 76 52 70 Q 56 56 54 40"></path>
  <line x1="48" y1="50" x2="52" y2="50" stroke-opacity="0.45"></line>
  <line x1="48" y1="58" x2="52" y2="58" stroke-opacity="0.45"></line>
  <line x1="48" y1="66" x2="52" y2="66" stroke-opacity="0.45"></line>
  <path d="M 48 76 L 46 84 L 50 84 L 50 76" stroke-opacity="0.7"></path>
  <path d="M 52 76 L 54 84 L 50 84 L 50 76" stroke-opacity="0.7"></path>
  <path d="M 44 86 L 50 84 L 56 86" stroke-opacity="0.5"></path>
</svg>