<svg xmlns="http://www.w3.org/2000/svg" viewBox="0 0 240 60" fill="none" stroke="currentColor" stroke-width="1.6" stroke-linecap="square" stroke-linejoin="miter" role="img" aria-label="Greek Meander Band">
  <!-- framing rails -->
  <line x1="0" y1="8" x2="240" y2="8" stroke-opacity="0.55"></line>
  <line x1="0" y1="52" x2="240" y2="52" stroke-opacity="0.55"></line>
  <!-- repeating Greek-key (meander) spirals, one per 40px -->
  <path d="M 4 50 L 4 18 L 28 18 L 28 42 L 14 42 L 14 28 L 22 28"></path>
  <path d="M 44 50 L 44 18 L 68 18 L 68 42 L 54 42 L 54 28 L 62 28"></path>
  <path d="M 84 50 L 84 18 L 108 18 L 108 42 L 94 42 L 94 28 L 102 28"></path>
  <path d="M 124 50 L 124 18 L 148 18 L 148 42 L 134 42 L 134 28 L 142 28"></path>
  <path d="M 164 50 L 164 18 L 188 18 L 188 42 L 174 42 L 174 28 L 182 28"></path>
  <path d="M 204 50 L 204 18 L 228 18 L 228 42 L 214 42 L 214 28 L 222 28"></path>
</svg>
